<svg width="131" height="19" viewBox="0 0 131 19" fill="none" xmlns="http://www.w3.org/2000/svg">
<path d="M0.517045 18V0.545454H7.40341C8.72727 0.545454 9.85511 0.798295 10.7869 1.30398C11.7188 1.80398 12.429 2.5 12.9176 3.39204C13.4119 4.27841 13.6591 5.30114 13.6591 6.46023C13.6591 7.61932 13.4091 8.64205 12.9091 9.52841C12.4091 10.4148 11.6847 11.1051 10.7358 11.5994C9.79261 12.0937 8.65057 12.3409 7.30966 12.3409H2.92045V9.38352H6.71307C7.4233 9.38352 8.00852 9.26136 8.46875 9.01705C8.93466 8.76705 9.28125 8.4233 9.50852 7.9858C9.74148 7.54261 9.85795 7.03409 9.85795 6.46023C9.85795 5.88068 9.74148 5.375 9.50852 4.94318C9.28125 4.50568 8.93466 4.16761 8.46875 3.92898C8.00284 3.68466 7.41193 3.5625 6.69602 3.5625H4.20739V18H0.517045ZM32.0959 9.27273C32.0959 11.1761 31.7351 12.7955 31.0135 14.1307C30.2976 15.4659 29.3203 16.4858 28.0817 17.1903C26.8487 17.8892 25.4624 18.2386 23.9226 18.2386C22.3714 18.2386 20.9794 17.8864 19.7464 17.1818C18.5135 16.4773 17.5391 15.4574 16.8232 14.1222C16.1072 12.7869 15.7493 11.1705 15.7493 9.27273C15.7493 7.36932 16.1072 5.75 16.8232 4.41477C17.5391 3.07955 18.5135 2.0625 19.7464 1.36364C20.9794 0.659091 22.3714 0.306818 23.9226 0.306818C25.4624 0.306818 26.8487 0.659091 28.0817 1.36364C29.3203 2.0625 30.2976 3.07955 31.0135 4.41477C31.7351 5.75 32.0959 7.36932 32.0959 9.27273ZM28.3544 9.27273C28.3544 8.03977 28.1697 7 27.8004 6.15341C27.4368 5.30682 26.9226 4.66477 26.2578 4.22727C25.593 3.78977 24.8146 3.57102 23.9226 3.57102C23.0305 3.57102 22.2521 3.78977 21.5874 4.22727C20.9226 4.66477 20.4055 5.30682 20.0362 6.15341C19.6726 7 19.4908 8.03977 19.4908 9.27273C19.4908 10.5057 19.6726 11.5455 20.0362 12.392C20.4055 13.2386 20.9226 13.8807 21.5874 14.3182C22.2521 14.7557 23.0305 14.9744 23.9226 14.9744C24.8146 14.9744 25.593 14.7557 26.2578 14.3182C26.9226 13.8807 27.4368 13.2386 27.8004 12.392C28.1697 11.5455 28.3544 10.5057 28.3544 9.27273ZM34.8295 18V0.545454H41.7159C43.0398 0.545454 44.1676 0.798295 45.0994 1.30398C46.0313 1.80398 46.7415 2.5 47.2301 3.39204C47.7244 4.27841 47.9716 5.30114 47.9716 6.46023C47.9716 7.61932 47.7216 8.64205 47.2216 9.52841C46.7216 10.4148 45.9972 11.1051 45.0483 11.5994C44.1051 12.0937 42.9631 12.3409 41.6222 12.3409H37.233V9.38352H41.0256C41.7358 9.38352 42.321 9.26136 42.7812 9.01705C43.2472 8.76705 43.5938 8.4233 43.821 7.9858C44.054 7.54261 44.1705 7.03409 44.1705 6.46023C44.1705 5.88068 44.054 5.375 43.821 4.94318C43.5938 4.50568 43.2472 4.16761 42.7812 3.92898C42.3153 3.68466 41.7244 3.5625 41.0085 3.5625H38.5199V18H34.8295ZM59.8374 5.56534C59.7692 4.87784 59.4766 4.34375 58.9595 3.96307C58.4425 3.58239 57.7408 3.39204 56.8544 3.39204C56.2521 3.39204 55.7436 3.47727 55.3288 3.64773C54.9141 3.8125 54.5959 4.04261 54.3743 4.33807C54.1584 4.63352 54.0504 4.96875 54.0504 5.34375C54.0391 5.65625 54.1044 5.92898 54.2464 6.16193C54.3942 6.39489 54.5959 6.59659 54.8516 6.76705C55.1072 6.93182 55.4027 7.0767 55.7379 7.2017C56.0732 7.32102 56.4311 7.4233 56.8118 7.50852L58.38 7.88352C59.1413 8.05398 59.8402 8.28125 60.4766 8.56534C61.1129 8.84943 61.6641 9.19886 62.13 9.61364C62.5959 10.0284 62.9567 10.517 63.2124 11.0795C63.4737 11.642 63.6072 12.2869 63.6129 13.0142C63.6072 14.0824 63.3345 15.0085 62.7947 15.7926C62.2607 16.571 61.4879 17.1761 60.4766 17.608C59.4709 18.0341 58.2578 18.2472 56.8374 18.2472C55.4283 18.2472 54.201 18.0312 53.1555 17.5994C52.1158 17.1676 51.3033 16.5284 50.718 15.6818C50.1385 14.8295 49.8345 13.7756 49.8061 12.5199H53.3771C53.4169 13.1051 53.5845 13.5937 53.88 13.9858C54.1811 14.3722 54.5817 14.6648 55.0817 14.8636C55.5874 15.0568 56.1584 15.1534 56.7947 15.1534C57.4197 15.1534 57.9624 15.0625 58.4226 14.8807C58.8885 14.6989 59.2493 14.446 59.505 14.1222C59.7607 13.7983 59.8885 13.4261 59.8885 13.0057C59.8885 12.6136 59.772 12.2841 59.5391 12.017C59.3118 11.75 58.9766 11.5227 58.5334 11.3352C58.0959 11.1477 57.5589 10.9773 56.9226 10.8239L55.022 10.3466C53.5504 9.98864 52.3885 9.42898 51.5362 8.66761C50.6839 7.90625 50.2607 6.88068 50.2663 5.59091C50.2607 4.53409 50.5419 3.6108 51.1101 2.82102C51.6839 2.03125 52.4709 1.41477 53.4709 0.971591C54.4709 0.528409 55.6072 0.306818 56.88 0.306818C58.1754 0.306818 59.3061 0.528409 60.272 0.971591C61.2436 1.41477 61.9993 2.03125 62.5391 2.82102C63.0788 3.6108 63.3572 4.52557 63.3743 5.56534H59.8374ZM65.4304 3.58807V0.545454H79.7656V3.58807H74.4219V18H70.7741V3.58807H65.4304ZM83.0021 18H79.0476L85.0732 0.545454H89.8288L95.8459 18H91.8913L87.5192 4.53409H87.3828L83.0021 18ZM82.755 11.1392H92.0959V14.0199H82.755V11.1392ZM112.546 0.545454V18H109.359L101.765 7.0142H101.637V18H97.9467V0.545454H101.185L108.719 11.5227H108.873V0.545454H112.546ZM121.783 18H115.595V0.545454H121.834C123.589 0.545454 125.101 0.894886 126.368 1.59375C127.635 2.28693 128.609 3.28409 129.291 4.58523C129.979 5.88636 130.322 7.44318 130.322 9.25568C130.322 11.0739 129.979 12.6364 129.291 13.9432C128.609 15.25 127.629 16.2528 126.351 16.9517C125.078 17.6506 123.555 18 121.783 18ZM119.286 14.8381H121.629C122.72 14.8381 123.638 14.6449 124.382 14.2585C125.132 13.8665 125.695 13.2614 126.07 12.4432C126.45 11.6193 126.641 10.5568 126.641 9.25568C126.641 7.96591 126.45 6.91193 126.07 6.09375C125.695 5.27557 125.135 4.6733 124.391 4.28693C123.646 3.90057 122.729 3.70739 121.638 3.70739H119.286V14.8381Z" fill="white"/>
</svg>
